<svg width="120" height="120" viewBox="0 0 120 120" fill="none" xmlns="http://www.w3.org/2000/svg">
<g clip-path="url(#clip0_2391_2872)">
<rect width="120" height="120" rx="15.5" fill="#600000"/>
<path d="M25.3375 50.1429L21.8244 63.1421L17.9139 50.1429H10.2857L17.6811 70.2101H25.8504L32.2918 50.1429H25.3375Z" fill="#EA0034"/>
<path d="M52.0199 50.1428V70.2101H69.0669V64.5235H58.0357V62.6282H68.9233V57.4218H58.0357V55.6521H69.0669V50.1428H52.0199Z" fill="#EA0034"/>
<path d="M102.202 57.4218H97.5005C96.9948 57.4218 96.5847 57.169 96.5847 56.537C96.5847 55.9049 96.9948 55.6521 97.5005 55.6521H101.961C102.467 55.6521 102.683 55.9049 102.683 56.537H109.277C109.277 52.4173 106.581 50.1428 101.745 50.1428H97.4986C92.1813 50.1428 90.0632 51.9626 90.0632 56.537C90.0632 60.5302 92.4214 62.6282 96.9212 62.6282H102.128C102.634 62.6282 103.044 62.9065 103.044 63.5631C103.044 64.2197 102.658 64.5235 102.152 64.5235H97.4022C96.8966 64.5235 96.6802 64.2452 96.6802 63.5631H90.1351C90.1351 68.3148 92.2531 70.2101 97.5705 70.2101H101.287C107.183 70.2101 109.752 68.3148 109.752 63.5631C109.752 59.5189 107.014 57.4218 102.201 57.4218" fill="#EA0034"/>
<path d="M33.3113 50.1428V70.2101H50.3829V64.5235H39.3271V62.6282H50.2383V57.4218H39.3271V55.6521H50.3829V50.1428H33.3113Z" fill="#EA0034"/>
<path d="M89.0277 56.5115C89.0277 51.9626 87.0542 50.1428 82.1452 50.1428H70.7047V70.2101H76.7687V62.6282H82.1461C87.0551 62.6282 89.0277 60.884 89.0277 56.5115ZM83.0601 56.5115C83.0601 57.169 82.6499 57.4218 82.1443 57.4218H76.7687V55.653H82.1443C82.6499 55.653 83.0601 55.9058 83.0601 56.5124" fill="#EA0034"/>
<g clip-path="url(#clip1_2391_2872)">
<rect width="120" height="120" rx="15.625" fill="#600000"/>
<rect width="120" height="120" rx="15.871" fill="#600000"/>
<path d="M25.3375 50.1429L21.8244 63.1421L17.9139 50.1429H10.2857L17.6811 70.2101H25.8504L32.2918 50.1429H25.3375Z" fill="#EA0034"/>
<path d="M52.02 50.1428V70.2101H69.0671V64.5235H58.0358V62.6282H68.9234V57.4218H58.0358V55.6521H69.0671V50.1428H52.02Z" fill="#EA0034"/>
<path d="M102.202 57.4218H97.5005C96.9948 57.4218 96.5847 57.169 96.5847 56.537C96.5847 55.9049 96.9948 55.6521 97.5005 55.6521H101.961C102.467 55.6521 102.683 55.9049 102.683 56.537H109.277C109.277 52.4173 106.581 50.1428 101.745 50.1428H97.4986C92.1813 50.1428 90.0632 51.9626 90.0632 56.537C90.0632 60.5302 92.4214 62.6282 96.9212 62.6282H102.128C102.634 62.6282 103.044 62.9065 103.044 63.5631C103.044 64.2197 102.658 64.5235 102.152 64.5235H97.4022C96.8966 64.5235 96.6802 64.2452 96.6802 63.5631H90.1351C90.1351 68.3148 92.2531 70.2101 97.5705 70.2101H101.287C107.183 70.2101 109.752 68.3148 109.752 63.5631C109.752 59.5189 107.014 57.4218 102.201 57.4218" fill="#EA0034"/>
<path d="M33.3114 50.1428V70.2101H50.383V64.5235H39.3272V62.6282H50.2384V57.4218H39.3272V55.6521H50.383V50.1428H33.3114Z" fill="#EA0034"/>
<path d="M89.0275 56.5115C89.0275 51.9626 87.0541 50.1428 82.1451 50.1428H70.7046V70.2101H76.7686V62.6282H82.146C87.055 62.6282 89.0275 60.884 89.0275 56.5115ZM83.0599 56.5115C83.0599 57.169 82.6498 57.4218 82.1442 57.4218H76.7686V55.653H82.1442C82.6498 55.653 83.0599 55.9058 83.0599 56.5124" fill="#EA0034"/>
</g>
</g>
<defs>
<clipPath id="clip0_2391_2872">
<rect width="120" height="120" rx="15.5" fill="white"/>
</clipPath>
<clipPath id="clip1_2391_2872">
<rect width="120" height="120" rx="15.625" fill="white"/>
</clipPath>
</defs>
</svg>
