<svg width="150" height="150" viewBox="0 0 150 150" fill="none" xmlns="http://www.w3.org/2000/svg">
<g clip-path="url(#clip0_2391_2874)">
<rect width="150" height="150" rx="20" fill="#600000"/>
<g clip-path="url(#clip1_2391_2874)">
<rect width="150" height="150" rx="19.5312" fill="#600000"/>
<rect width="150" height="150" rx="19.8387" fill="#600000"/>
<path d="M31.6719 62.6786L27.2805 78.9276L22.3924 62.6786H12.8572L22.1014 87.7626H32.313L40.3648 62.6786H31.6719Z" fill="#EA0034"/>
<path d="M65.0249 62.6786V87.7626H86.3337V80.6543H72.5447V78.2853H86.1541V71.7773H72.5447V69.5651H86.3337V62.6786H65.0249Z" fill="#EA0034"/>
<path d="M127.753 71.7773H121.875C121.243 71.7773 120.731 71.4613 120.731 70.6712C120.731 69.8811 121.243 69.5651 121.875 69.5651H127.451C128.083 69.5651 128.354 69.8811 128.354 70.6712H136.596C136.596 65.5216 133.226 62.6786 127.181 62.6786H121.873C115.226 62.6786 112.579 64.9532 112.579 70.6712C112.579 75.6628 115.527 78.2853 121.151 78.2853H127.66C128.293 78.2853 128.805 78.6332 128.805 79.4539C128.805 80.2747 128.322 80.6543 127.69 80.6543H121.753C121.121 80.6543 120.85 80.3065 120.85 79.4539H112.669C112.669 85.3935 115.316 87.7626 121.963 87.7626H126.609C133.979 87.7626 137.19 85.3935 137.19 79.4539C137.19 74.3987 133.767 71.7773 127.751 71.7773" fill="#EA0034"/>
<path d="M41.6392 62.6786V87.7626H62.9787V80.6543H49.1589V78.2853H62.7979V71.7773H49.1589V69.5651H62.9787V62.6786H41.6392Z" fill="#EA0034"/>
<path d="M111.285 70.6394C111.285 64.9532 108.818 62.6786 102.681 62.6786H88.3809V87.7626H95.9609V78.2853H102.683C108.819 78.2853 111.285 76.105 111.285 70.6394ZM103.825 70.6394C103.825 71.4613 103.312 71.7773 102.68 71.7773H95.9609V69.5663H102.68C103.312 69.5663 103.825 69.8823 103.825 70.6405" fill="#EA0034"/>
</g>
</g>
<defs>
<clipPath id="clip0_2391_2874">
<rect width="150" height="150" rx="20" fill="white"/>
</clipPath>
<clipPath id="clip1_2391_2874">
<rect width="150" height="150" rx="19.5312" fill="white"/>
</clipPath>
</defs>
</svg>
