<svg width="152" height="152" viewBox="0 0 152 152" fill="none" xmlns="http://www.w3.org/2000/svg">
<g clip-path="url(#clip0_2391_2868)">
<rect width="152" height="152" rx="19" fill="#600000"/>
<g clip-path="url(#clip1_2391_2868)">
<rect width="152" height="152" rx="19.7917" fill="#600000"/>
<rect width="152" height="152" rx="20.1032" fill="#600000"/>
<path d="M32.0941 63.5143L27.6442 79.98L22.6909 63.5143H13.0286L22.3961 88.9328H32.7438L40.903 63.5143H32.0941Z" fill="#EA0034"/>
<path d="M65.892 63.5143V88.9327H87.4849V81.7297H73.512V79.3291H87.3029V72.7343H73.512V70.4927H87.4849V63.5143H65.892Z" fill="#EA0034"/>
<path d="M129.456 72.7343H123.501C122.86 72.7343 122.341 72.4141 122.341 71.6135C122.341 70.8129 122.86 70.4927 123.501 70.4927H129.151C129.791 70.4927 130.065 70.8129 130.065 71.6135H138.417C138.417 66.3952 135.003 63.5143 128.877 63.5143H123.498C116.763 63.5143 114.08 65.8193 114.08 71.6135C114.08 76.6716 117.067 79.3291 122.767 79.3291H129.363C130.003 79.3291 130.523 79.6816 130.523 80.5133C130.523 81.345 130.033 81.7297 129.393 81.7297H123.376C122.736 81.7297 122.462 81.3772 122.462 80.5133H114.171C114.171 86.5321 116.854 88.9327 123.589 88.9327H128.297C135.765 88.9327 139.019 86.5321 139.019 80.5133C139.019 75.3907 135.551 72.7343 129.455 72.7343" fill="#EA0034"/>
<path d="M42.1945 63.5143V88.9327H63.8185V81.7297H49.8145V79.3291H63.6353V72.7343H49.8145V70.4927H63.8185V63.5143H42.1945Z" fill="#EA0034"/>
<path d="M112.768 71.5812C112.768 65.8193 110.269 63.5143 104.05 63.5143H89.5592V88.9327H97.2403V79.3291H104.052C110.27 79.3291 112.768 77.1197 112.768 71.5812ZM105.209 71.5812C105.209 72.4141 104.69 72.7343 104.049 72.7343H97.2403V70.4938H104.049C104.69 70.4938 105.209 70.814 105.209 71.5824" fill="#EA0034"/>
</g>
</g>
<defs>
<clipPath id="clip0_2391_2868">
<rect width="152" height="152" rx="19" fill="white"/>
</clipPath>
<clipPath id="clip1_2391_2868">
<rect width="152" height="152" rx="19.7917" fill="white"/>
</clipPath>
</defs>
</svg>
