<svg width="192" height="192" viewBox="0 0 192 192" fill="none" xmlns="http://www.w3.org/2000/svg">
<g clip-path="url(#clip0_2391_2867)">
<rect width="192" height="192" rx="25" fill="#600000"/>
<rect width="192" height="192" rx="25.3935" fill="#600000"/>
<path d="M40.54 80.2286L34.9191 101.027L28.6623 80.2286H16.4572L28.2898 112.336H41.3607L51.6669 80.2286H40.54Z" fill="#EA0034"/>
<path d="M83.2319 80.2285V112.336H110.507V103.238H92.8572V100.205H110.277V91.8749H92.8572V89.0433H110.507V80.2285H83.2319Z" fill="#EA0034"/>
<path d="M163.523 91.8749H156.001C155.192 91.8749 154.535 91.4704 154.535 90.4591C154.535 89.4479 155.192 89.0433 156.001 89.0433H163.138C163.947 89.0433 164.293 89.4479 164.293 90.4591H174.842C174.842 83.8677 170.529 80.2285 162.791 80.2285H155.998C147.49 80.2285 144.101 83.1401 144.101 90.4591C144.101 96.8483 147.874 100.205 155.074 100.205H163.405C164.214 100.205 164.871 100.65 164.871 101.701C164.871 102.752 164.252 103.238 163.443 103.238H155.843C155.034 103.238 154.688 102.792 154.688 101.701H144.216C144.216 109.304 147.605 112.336 156.113 112.336H162.06C171.493 112.336 175.603 109.304 175.603 101.701C175.603 95.2303 171.222 91.8749 163.522 91.8749" fill="#EA0034"/>
<path d="M53.2982 80.2285V112.336H80.6128V103.238H62.9235V100.205H80.3814V91.8749H62.9235V89.0433H80.6128V80.2285H53.2982Z" fill="#EA0034"/>
<path d="M142.444 90.4184C142.444 83.1401 139.287 80.2285 131.432 80.2285H113.127V112.336H122.83V100.205H131.434C139.288 100.205 142.444 97.4144 142.444 90.4184ZM132.896 90.4184C132.896 91.4704 132.24 91.8749 131.431 91.8749H122.83V89.0448H131.431C132.24 89.0448 132.896 89.4493 132.896 90.4198" fill="#EA0034"/>
</g>
<defs>
<clipPath id="clip0_2391_2867">
<rect width="192" height="192" rx="25" fill="white"/>
</clipPath>
</defs>
</svg>
