<svg width="310" height="150" viewBox="0 0 310 150" fill="none" xmlns="http://www.w3.org/2000/svg">
<rect width="310" height="150" fill="#600000"/>
<path d="M93.0651 57L86.7481 80.3744L79.7165 57H66L79.2979 93.0836H93.9874L105.57 57H93.0651Z" fill="#EA0034"/>
<path d="M141.044 57V93.0835H171.697V82.8583H151.861V79.4504H171.438V70.0886H151.861V66.9064H171.697V57H141.044Z" fill="#EA0034"/>
<path d="M231.278 70.0886H222.824C221.915 70.0886 221.177 69.634 221.177 68.4975C221.177 67.361 221.915 66.9064 222.824 66.9064H230.845C231.754 66.9064 232.143 67.361 232.143 68.4975H243.999C243.999 61.0897 239.152 57 230.456 57H222.821C213.259 57 209.451 60.2721 209.451 68.4975C209.451 75.6779 213.691 79.4504 221.782 79.4504H231.146C232.055 79.4504 232.792 79.9508 232.792 81.1314C232.792 82.3121 232.097 82.8583 231.188 82.8583H222.647C221.738 82.8583 221.349 82.3579 221.349 81.1314H209.58C209.58 89.6757 213.388 93.0835 222.95 93.0835H229.633C240.234 93.0835 244.854 89.6757 244.854 81.1314C244.854 73.8595 239.93 70.0886 231.276 70.0886" fill="#EA0034"/>
<path d="M107.403 57V93.0835H138.1V82.8583H118.22V79.4504H137.84V70.0886H118.22V66.9064H138.1V57H107.403Z" fill="#EA0034"/>
<path d="M207.588 68.4517C207.588 60.2721 204.04 57 195.213 57H174.641V93.0835H185.545V79.4504H195.215C204.042 79.4504 207.588 76.314 207.588 68.4517ZM196.858 68.4517C196.858 69.634 196.12 70.0886 195.211 70.0886H185.545V66.908H195.211C196.12 66.908 196.858 67.3626 196.858 68.4533" fill="#EA0034"/>
</svg>
