<svg width="310" height="310" viewBox="0 0 310 310" fill="none" xmlns="http://www.w3.org/2000/svg">
<rect width="310" height="310" rx="41" fill="#600000"/>
<path d="M65.4552 129.536L56.3797 163.117L46.2776 129.536H26.5714L45.6762 181.376H66.7802L83.4205 129.536H65.4552Z" fill="#EA0034"/>
<path d="M134.385 129.536V181.376H178.423V166.686H149.926V161.79H178.052V148.34H149.926V143.768H178.423V129.536H134.385Z" fill="#EA0034"/>
<path d="M264.022 148.34H251.876C250.57 148.34 249.51 147.687 249.51 146.054C249.51 144.421 250.57 143.768 251.876 143.768H263.399C264.706 143.768 265.265 144.421 265.265 146.054H282.298C282.298 135.411 275.334 129.536 262.84 129.536H251.871C238.135 129.536 232.663 134.237 232.663 146.054C232.663 156.37 238.755 161.79 250.38 161.79H263.832C265.138 161.79 266.198 162.509 266.198 164.205C266.198 165.901 265.199 166.686 263.893 166.686H251.622C250.316 166.686 249.757 165.967 249.757 164.205H232.849C232.849 176.48 238.32 181.376 252.057 181.376H261.659C276.889 181.376 283.526 176.48 283.526 164.205C283.526 153.757 276.452 148.34 264.02 148.34" fill="#EA0034"/>
<path d="M86.0543 129.536V181.376H130.156V166.686H101.595V161.79H129.782V148.34H101.595V143.768H130.156V129.536H86.0543Z" fill="#EA0034"/>
<path d="M229.988 145.988C229.988 134.237 224.89 129.536 212.208 129.536H182.654V181.376H198.319V161.79H212.211C224.892 161.79 229.988 157.284 229.988 145.988ZM214.572 145.988C214.572 147.687 213.512 148.34 212.206 148.34H198.319V143.77H212.206C213.512 143.77 214.572 144.423 214.572 145.99" fill="#EA0034"/>
</svg>
