<svg width="32" height="32" viewBox="0 0 32 32" fill="none" xmlns="http://www.w3.org/2000/svg">
<g clip-path="url(#clip0_2391_2870)">
<rect width="32" height="32" rx="7.43581" fill="#600000"/>
<path d="M6.93446 13L6.01616 16.3979L4.99397 13H3L4.93312 18.2455H7.06853L8.75228 13H6.93446Z" fill="#EA0034"/>
<path d="M13.9092 13V18.2455H18.3652V16.759H15.4817V16.2636H18.3276V14.9027H15.4817V14.4401H18.3652V13H13.9092Z" fill="#EA0034"/>
<path d="M27.0264 14.9027H25.7974C25.6653 14.9027 25.5581 14.8366 25.5581 14.6714C25.5581 14.5062 25.6653 14.4401 25.7974 14.4401H26.9634C27.0956 14.4401 27.1522 14.5062 27.1522 14.6714H28.8756C28.8756 13.5945 28.1711 13 26.9069 13H25.797C24.407 13 23.8534 13.4757 23.8534 14.6714C23.8534 15.7152 24.4698 16.2636 25.646 16.2636H27.0072C27.1394 16.2636 27.2466 16.3364 27.2466 16.508C27.2466 16.6796 27.1455 16.759 27.0134 16.759H25.7718C25.6396 16.759 25.583 16.6863 25.583 16.508H23.8722C23.8722 17.7501 24.4258 18.2455 25.8157 18.2455H26.7873C28.3284 18.2455 29 17.7501 29 16.508C29 15.4509 28.2842 14.9027 27.0262 14.9027" fill="#EA0034"/>
<path d="M9.0188 13V18.2455H13.4812V16.759H10.5913V16.2636H13.4434V14.9027H10.5913V14.4401H13.4812V13H9.0188Z" fill="#EA0034"/>
<path d="M23.5827 14.6647C23.5827 13.4757 23.0669 13 21.7837 13H18.7932V18.2455H20.3783V16.2636H21.7839C23.0671 16.2636 23.5827 15.8077 23.5827 14.6647ZM22.0228 14.6647C22.0228 14.8366 21.9156 14.9027 21.7835 14.9027H20.3783V14.4403H21.7835C21.9156 14.4403 22.0228 14.5064 22.0228 14.665" fill="#EA0034"/>
</g>
<defs>
<clipPath id="clip0_2391_2870">
<rect width="32" height="32" fill="white"/>
</clipPath>
</defs>
</svg>
