<svg width="70" height="70" viewBox="0 0 70 70" fill="none" xmlns="http://www.w3.org/2000/svg">
<g clip-path="url(#clip0_2391_2876)">
<rect width="70" height="70" rx="9" fill="#600000"/>
<g clip-path="url(#clip1_2391_2876)">
<rect width="70" height="70" rx="8.75" fill="#600000"/>
<g clip-path="url(#clip2_2391_2876)">
<rect width="70" height="70" rx="9.11458" fill="#600000"/>
<rect width="70" height="70" rx="9.25806" fill="#600000"/>
<path d="M14.7802 29.25L12.7309 36.8329L10.4498 29.25H6L10.314 40.9559H15.0794L18.8369 29.25H14.7802Z" fill="#EA0034"/>
<path d="M30.345 29.25V40.9559H40.2891V37.6387H33.8542V36.5331H40.2053V33.4961H33.8542V32.4637H40.2891V29.25H30.345Z" fill="#EA0034"/>
<path d="M59.6179 33.4961H56.8752C56.5803 33.4961 56.341 33.3486 56.341 32.9799C56.341 32.6112 56.5803 32.4637 56.8752 32.4637H59.4773C59.7723 32.4637 59.8985 32.6112 59.8985 32.9799H63.7446C63.7446 30.5767 62.1722 29.25 59.3511 29.25H56.8742C53.7724 29.25 52.5369 30.3115 52.5369 32.9799C52.5369 35.3093 53.9124 36.5331 56.5373 36.5331H59.5749C59.8699 36.5331 60.1091 36.6955 60.1091 37.0785C60.1091 37.4615 59.8837 37.6387 59.5887 37.6387H56.818C56.523 37.6387 56.3967 37.4764 56.3967 37.0785H52.5788C52.5788 39.8503 53.8143 40.9559 56.9161 40.9559H59.0842C62.5234 40.9559 64.0221 39.8503 64.0221 37.0785C64.0221 34.7194 62.4247 33.4961 59.6174 33.4961" fill="#EA0034"/>
<path d="M19.4316 29.25V40.9559H29.3901V37.6387H22.9409V36.5331H29.3057V33.4961H22.9409V32.4637H29.3901V29.25H19.4316Z" fill="#EA0034"/>
<path d="M51.9328 32.965C51.9328 30.3115 50.7816 29.25 47.918 29.25H41.2444V40.9559H44.7817V36.5331H47.9185C50.7821 36.5331 51.9328 35.5156 51.9328 32.965ZM48.4517 32.965C48.4517 33.3486 48.2124 33.4961 47.9175 33.4961H44.7817V32.4642H47.9175C48.2124 32.4642 48.4517 32.6117 48.4517 32.9656" fill="#EA0034"/>
</g>
</g>
</g>
<defs>
<clipPath id="clip0_2391_2876">
<rect width="70" height="70" rx="9" fill="white"/>
</clipPath>
<clipPath id="clip1_2391_2876">
<rect width="70" height="70" rx="8.75" fill="white"/>
</clipPath>
<clipPath id="clip2_2391_2876">
<rect width="70" height="70" rx="9.11458" fill="white"/>
</clipPath>
</defs>
</svg>
