<svg width="76" height="76" viewBox="0 0 76 76" fill="none" xmlns="http://www.w3.org/2000/svg">
<g clip-path="url(#clip0_2391_2873)">
<rect width="76" height="76" rx="10" fill="#600000"/>
<g clip-path="url(#clip1_2391_2873)">
<rect width="76" height="76" rx="9.89583" fill="#600000"/>
<rect width="76" height="76" rx="10.0516" fill="#600000"/>
<path d="M16.0471 31.7571L13.8221 39.99L11.3455 31.7571H6.51428L11.198 44.4664H16.3719L20.4515 31.7571H16.0471Z" fill="#EA0034"/>
<path d="M32.9459 31.7571V44.4664H43.7424V40.8649H36.7559V39.6645H43.6514V36.3671H36.7559V35.2463H43.7424V31.7571H32.9459Z" fill="#EA0034"/>
<path d="M64.728 36.3671H61.7503C61.43 36.3671 61.1703 36.207 61.1703 35.8067C61.1703 35.4064 61.43 35.2463 61.7503 35.2463H64.5754C64.8956 35.2463 65.0327 35.4064 65.0327 35.8067H69.2084C69.2084 33.1976 67.5013 31.7571 64.4383 31.7571H61.7491C58.3815 31.7571 57.04 32.9096 57.04 35.8067C57.04 38.3358 58.5335 39.6645 61.3834 39.6645H64.6814C65.0016 39.6645 65.2614 39.8408 65.2614 40.2566C65.2614 40.6725 65.0166 40.8649 64.6963 40.8649H61.6881C61.3678 40.8649 61.2308 40.6886 61.2308 40.2566H57.0855C57.0855 43.2661 58.427 44.4664 61.7946 44.4664H64.1486C67.8826 44.4664 69.5097 43.2661 69.5097 40.2566C69.5097 37.6953 67.7754 36.3671 64.7274 36.3671" fill="#EA0034"/>
<path d="M21.0972 31.7571V44.4664H31.9092V40.8649H24.9072V39.6645H31.8176V36.3671H24.9072V35.2463H31.9092V31.7571H21.0972Z" fill="#EA0034"/>
<path d="M56.3842 35.7906C56.3842 32.9096 55.1344 31.7571 52.0253 31.7571H44.7797V44.4664H48.6202V39.6645H52.0259C55.1349 39.6645 56.3842 38.5598 56.3842 35.7906ZM52.6047 35.7906C52.6047 36.207 52.345 36.3671 52.0247 36.3671H48.6202V35.2469H52.0247C52.345 35.2469 52.6047 35.407 52.6047 35.7912" fill="#EA0034"/>
</g>
</g>
<defs>
<clipPath id="clip0_2391_2873">
<rect width="76" height="76" rx="10" fill="white"/>
</clipPath>
<clipPath id="clip1_2391_2873">
<rect width="76" height="76" rx="9.89583" fill="white"/>
</clipPath>
</defs>
</svg>
