<svg width="1200" height="630" viewBox="0 0 1200 630" fill="none" xmlns="http://www.w3.org/2000/svg">
<rect width="1200" height="630" fill="#600000"/>
<path d="M355.927 244L331.204 335.483L303.684 244H250L302.045 385.224H359.537L404.869 244H355.927Z" fill="#EA0034"/>
<path d="M543.705 244V385.224H663.674V345.204H586.041V331.867H662.663V295.226H586.041V282.772H663.674V244H543.705Z" fill="#EA0034"/>
<path d="M896.867 295.226H863.778C860.22 295.226 857.333 293.447 857.333 288.999C857.333 284.551 860.22 282.772 863.778 282.772H895.171C898.729 282.772 900.252 284.551 900.252 288.999H946.653C946.653 260.007 927.683 244 893.647 244H863.765C826.344 244 811.438 256.807 811.438 288.999C811.438 317.102 828.034 331.867 859.701 331.867H896.348C899.907 331.867 902.793 333.825 902.793 338.446C902.793 343.067 900.073 345.204 896.515 345.204H863.087C859.529 345.204 858.005 343.246 858.005 338.446H811.944C811.944 371.886 826.85 385.224 864.271 385.224H890.428C931.92 385.224 950 371.886 950 338.446C950 309.985 930.729 295.226 896.86 295.226" fill="#EA0034"/>
<path d="M412.036 244V385.224H532.178V345.204H454.372V331.867H531.16V295.226H454.372V282.772H532.178V244H412.036Z" fill="#EA0034"/>
<path d="M804.149 288.82C804.149 256.807 790.261 244 755.714 244H675.201V385.224H717.877V331.867H755.72C790.268 331.867 804.149 319.591 804.149 288.82ZM762.152 288.82C762.152 293.447 759.266 295.226 755.707 295.226H717.877V282.778H755.707C759.266 282.778 762.152 284.557 762.152 288.826" fill="#EA0034"/>
</svg>
