<svg width="1600" height="900" viewBox="0 0 1600 900" fill="none" xmlns="http://www.w3.org/2000/svg">
<rect width="1600" height="900" fill="#600000"/>
<path d="M486.192 359L454.405 476.62L419.022 359H350L416.915 540.574H490.833L549.117 359H486.192Z" fill="#EA0034"/>
<path d="M727.62 359V540.574H881.866V489.12H782.053V471.971H880.566V424.862H782.053V408.849H881.866V359H727.62Z" fill="#EA0034"/>
<path d="M1181.69 424.862H1139.14C1134.57 424.862 1130.86 422.575 1130.86 416.856C1130.86 411.137 1134.57 408.849 1139.14 408.849H1179.51C1184.08 408.849 1186.04 411.137 1186.04 416.856H1245.7C1245.7 379.58 1221.31 359 1177.55 359H1139.13C1091.01 359 1071.85 375.466 1071.85 416.856C1071.85 452.988 1093.19 471.971 1133.9 471.971H1181.02C1185.59 471.971 1189.31 474.489 1189.31 480.43C1189.31 486.371 1185.81 489.12 1181.23 489.12H1138.25C1133.68 489.12 1131.72 486.602 1131.72 480.43H1072.5C1072.5 523.425 1091.66 540.574 1139.78 540.574H1173.41C1226.75 540.574 1250 523.425 1250 480.43C1250 443.837 1225.22 424.862 1181.68 424.862" fill="#EA0034"/>
<path d="M558.332 359V540.574H712.8V489.12H612.765V471.971H711.492V424.862H612.765V408.849H712.8V359H558.332Z" fill="#EA0034"/>
<path d="M1062.48 416.625C1062.48 375.466 1044.62 359 1000.2 359H896.687V540.574H951.555V471.971H1000.21C1044.63 471.971 1062.48 456.189 1062.48 416.625ZM1008.48 416.625C1008.48 422.575 1004.77 424.862 1000.2 424.862H951.555V408.857H1000.2C1004.77 408.857 1008.48 411.145 1008.48 416.634" fill="#EA0034"/>
</svg>
