<?xml version="1.0" encoding="utf-8"?>
<!-- Generator: Adobe Illustrator 27.6.1, SVG Export Plug-In . SVG Version: 6.00 Build 0)  -->
<svg version="1.1" id="Layer_1" xmlns="http://www.w3.org/2000/svg" xmlns:xlink="http://www.w3.org/1999/xlink" x="0px" y="0px"
	 viewBox="0 0 750 750" style="enable-background:new 0 0 750 750;" xml:space="preserve">
<style type="text/css">
	.st0{fill:#600000;}
	.st1{fill:#EA0034;}
</style>
<g>
	<rect class="st0" width="750" height="750"/>
	<g>
		<polygon class="st1" points="130.21,387.98 105.18,304.76 56.34,304.76 103.68,433.24 155.99,433.24 197.23,304.76 152.71,304.76 
					"/>
		<polygon class="st1" points="323.54,433.24 432.69,433.24 432.69,396.83 362.05,396.83 362.05,384.69 431.76,384.69 
			431.76,351.36 362.05,351.36 362.05,340.03 432.69,340.03 432.69,304.76 323.54,304.76 		"/>
		<path class="st1" d="M644.83,351.36h-30.1c-3.23,0-5.86-1.62-5.86-5.66c0-4.04,2.63-5.66,5.86-5.66h28.56
			c3.23,0,4.62,1.62,4.62,5.66h42.21c0-26.37-17.26-40.94-48.22-40.94h-27.19c-34.05,0-47.6,11.65-47.6,40.94
			c0,25.57,15.1,39,43.91,39h33.34c3.23,0,5.86,1.78,5.86,5.99c0,4.37-2.47,6.15-5.71,6.15H614.1c-3.23,0-4.62-1.78-4.62-6.15h-41.9
			c0,30.42,13.56,42.56,47.61,42.56h23.79c37.75,0,54.68-12.14,54.68-42.56C693.66,364.79,675.65,351.36,644.83,351.36z"/>
		<polygon class="st1" points="203.75,433.24 313.06,433.24 313.06,396.83 242.27,396.83 242.27,384.69 312.13,384.69 
			312.13,351.36 242.27,351.36 242.27,340.03 313.06,340.03 313.06,304.76 203.75,304.76 		"/>
		<path class="st1" d="M516.42,304.75h-73.25v128.48h38.82v-48.54h34.43c31.43,0,44.06-11.17,44.06-39.16
			C560.48,316.41,547.85,304.75,516.42,304.75z M516.41,351.36h-34.42v-11.33h34.42c3.23,0,5.86,1.62,5.86,5.5
			C522.27,349.74,519.65,351.36,516.41,351.36z"/>
	</g>
</g>
</svg>
